<?xml version="1.0" encoding="UTF-8"?>
<svg id="Layer_1" xmlns="http://www.w3.org/2000/svg" version="1.1" viewBox="0 0 707.3 123.45">
  <!-- Generator: Adobe Illustrator 29.6.1, SVG Export Plug-In . SVG Version: 2.1.1 Build 9)  -->
  <defs>
    <style>
      .st0 {
        fill: #c4c4c4;
      }

      .st1 {
        fill: #f9f9f9;
      }
    </style>
  </defs>
  <g>
    <path class="st1" d="M68.69,12.54l38.59,105.93h-25.27l-6.51-18.61-6.36,18.61H2.26L40.85,12.54h27.84ZM74.29,96.37l-19.52-55.99-19.67,55.99h39.19Z"/>
    <path class="st1" d="M157.52,120.28c-9.68,0-18.92-3.78-25.12-11.65v9.84h-22.55V5.73h22.55v42.98c6.2-7.87,15.44-11.65,25.12-11.65,18.46,0,37.98,14.22,37.98,41.61s-19.52,41.61-37.98,41.61ZM151.92,57.18c-9.08,0-18.16,6.2-19.52,18.46v6.05c1.36,12.26,10.44,18.31,19.67,18.31,9.84,0,19.82-7.11,19.82-21.34s-9.99-21.49-19.97-21.49h0Z"/>
    <path class="st1" d="M285.08,38.87v79.6h-22.55v-9.99c-6.21,8.02-15.59,11.95-25.12,11.95-18.61,0-38.13-14.38-38.13-41.77s19.52-41.77,38.13-41.77c9.53,0,18.91,3.93,25.12,11.95v-9.99h22.55v.02ZM242.86,57.18c-9.84,0-19.82,7.26-19.82,21.49s9.99,21.34,19.82,21.34,19.67-6.96,19.67-21.34-9.84-21.49-19.67-21.49h0Z"/>
    <path class="st1" d="M370.43,118.46h-25.88l-21.34-34.05h-4.84v34.05h-22.55V5.73h22.55v62.04h4.24l19.52-28.9h26.33l-23.76,36.47,25.72,43.13h.01Z"/>
    <path class="st1" d="M451.99,38.87v79.6h-22.55v-9.99c-6.21,8.02-15.59,11.95-25.12,11.95-18.61,0-38.13-14.38-38.13-41.77s19.52-41.77,38.13-41.77c9.53,0,18.91,3.93,25.12,11.95v-9.99h22.55v.02ZM409.77,57.18c-9.84,0-19.82,7.26-19.82,21.49s9.99,21.34,19.82,21.34,19.67-6.96,19.67-21.34-9.84-21.49-19.67-21.49Z"/>
    <path class="st1" d="M544.9,5.73v112.74h-22.55v-9.84c-6.2,7.87-15.43,11.65-25.12,11.65-18.46,0-37.98-14.22-37.98-41.61s19.52-41.61,37.98-41.61c9.69,0,18.92,3.78,25.12,11.65V5.73h22.55ZM522.35,75.64c-1.21-12.26-10.29-18.46-19.52-18.46-9.84,0-19.82,7.26-19.82,21.49s9.99,21.34,19.82,21.34c9.23,0,18.31-6.05,19.52-18.31v-6.05h0Z"/>
    <path class="st1" d="M637.97,38.87v79.6h-22.55v-9.99c-6.21,8.02-15.59,11.95-25.12,11.95-18.61,0-38.13-14.38-38.13-41.77s19.52-41.77,38.13-41.77c9.53,0,18.91,3.93,25.12,11.95v-9.99h22.55v.02ZM595.75,57.18c-9.84,0-19.82,7.26-19.82,21.49s9.99,21.34,19.82,21.34,19.67-6.96,19.67-21.34-9.84-21.49-19.67-21.49Z"/>
  </g>
  <g>
    <path class="st0" d="M688.04,118.41h-10.2v-10.2h10.2v10.2Z"/>
    <path class="st0" d="M670.63,69.81c10.6,0,18.41,7.88,18.41,18.21s-7.68,18.21-18.41,18.21-18.41-7.88-18.41-18.21,7.81-18.21,18.41-18.21ZM670.63,80c-5.03,0-8.68,3.44-8.68,8.01s3.58,8.01,8.68,8.01,8.68-3.44,8.68-8.01-3.64-8.01-8.68-8.01Z"/>
    <path class="st0" d="M653.21,43.52h8.87v8.34c0,3.91,2.12,5.1,7.15,5.1h18.81v9.87h-34.83v-9.87h5.36c-3.71-2.12-5.36-5.16-5.36-9.01v-4.44h0Z"/>
    <path class="st0" d="M653.21,5.71l36.95.27c11.19,0,16.62,9.6,16.62,19.34,0,7.02-2.78,14.04-8.21,17.75l-5.69-5.83c3.18-2.78,4.97-7.35,4.97-11.59,0-5.17-2.78-9.8-9.07-9.8v-.07h-4.97c3.38,2.72,5.03,6.76,5.03,10.93,0,8.15-6.23,16.69-18.21,16.69s-18.21-8.54-18.21-16.69c0-4.24,1.72-8.34,5.23-11.06l-4.44-.07V5.71h0ZM670.29,15.71c-6.03.13-9.07,4.37-9.07,8.61s3.18,8.68,9.4,8.68,9.34-4.37,9.34-8.68-2.85-8.34-8.74-8.61h-.93Z"/>
  </g>
</svg>