<?xml version="1.0" encoding="UTF-8"?>
<svg id="Layer_1" data-name="Layer 1" xmlns="http://www.w3.org/2000/svg" viewBox="0 0 196.23 196.23">
  <defs>
    <style>
      .cls-1 {
        fill: #c4c4c4;
      }

      .cls-2 {
        fill: #fff;
      }
    </style>
  </defs>
  <path class="cls-2" d="M118.04,4.47l56.8,155.91h-37.2l-9.58-27.4-9.35,27.4H20.27L77.06,4.47h40.98ZM126.28,127.86l-28.73-82.41-28.95,82.41h57.69Z"/>
  <path class="cls-2" d="M34.95,167.91l8.53,23.41h-5.58l-1.44-4.11-1.4,4.11h-14.78l8.53-23.41h6.15ZM36.19,186.44l-4.31-12.37-4.35,12.37h8.66Z"/>
  <path class="cls-2" d="M54.58,191.72c-2.14,0-4.18-.84-5.55-2.57v2.17h-4.98v-24.91h4.98v9.5c1.37-1.74,3.41-2.57,5.55-2.57,4.08,0,8.39,3.14,8.39,9.2s-4.31,9.2-8.39,9.2ZM53.34,177.78c-2.01,0-4.01,1.37-4.31,4.08v1.34c.3,2.71,2.31,4.05,4.35,4.05,2.17,0,4.38-1.57,4.38-4.72s-2.21-4.75-4.41-4.75Z"/>
  <path class="cls-2" d="M82.77,173.73v17.59h-4.98v-2.21c-1.37,1.77-3.44,2.64-5.55,2.64-4.11,0-8.43-3.18-8.43-9.23s4.31-9.23,8.43-9.23c2.11,0,4.18.87,5.55,2.64v-2.21h4.98ZM73.44,177.78c-2.17,0-4.38,1.61-4.38,4.75s2.21,4.72,4.38,4.72,4.35-1.54,4.35-4.72-2.17-4.75-4.35-4.75Z"/>
  <path class="cls-2" d="M101.63,191.32h-5.72l-4.72-7.52h-1.07v7.52h-4.98v-24.91h4.98v13.71h.94l4.31-6.39h5.82l-5.25,8.06,5.68,9.53Z"/>
  <path class="cls-2" d="M119.65,173.73v17.59h-4.98v-2.21c-1.37,1.77-3.44,2.64-5.55,2.64-4.11,0-8.43-3.18-8.43-9.23s4.31-9.23,8.43-9.23c2.11,0,4.18.87,5.55,2.64v-2.21h4.98ZM110.32,177.78c-2.17,0-4.38,1.61-4.38,4.75s2.21,4.72,4.38,4.72,4.35-1.54,4.35-4.72-2.17-4.75-4.35-4.75Z"/>
  <path class="cls-2" d="M140.19,166.41v24.91h-4.98v-2.17c-1.37,1.74-3.41,2.57-5.55,2.57-4.08,0-8.39-3.14-8.39-9.2s4.31-9.2,8.39-9.2c2.14,0,4.18.84,5.55,2.57v-9.5h4.98ZM135.2,181.86c-.27-2.71-2.27-4.08-4.31-4.08-2.17,0-4.38,1.61-4.38,4.75s2.21,4.72,4.38,4.72c2.04,0,4.05-1.34,4.31-4.05v-1.34Z"/>
  <path class="cls-2" d="M160.75,173.73v17.59h-4.98v-2.21c-1.37,1.77-3.44,2.64-5.55,2.64-4.11,0-8.43-3.18-8.43-9.23s4.31-9.23,8.43-9.23c2.11,0,4.18.87,5.55,2.64v-2.21h4.98ZM151.42,177.78c-2.17,0-4.38,1.61-4.38,4.75s2.21,4.72,4.38,4.72,4.35-1.54,4.35-4.72-2.17-4.75-4.35-4.75Z"/>
  <path class="cls-1" d="M171.82,191.31h-2.25v-2.25h2.25v2.25Z"/>
  <path class="cls-1" d="M167.97,180.57c2.34,0,4.07,1.74,4.07,4.02s-1.7,4.02-4.07,4.02-4.07-1.74-4.07-4.02,1.73-4.02,4.07-4.02ZM167.97,182.82c-1.11,0-1.92.76-1.92,1.77s.79,1.77,1.92,1.77,1.92-.76,1.92-1.77-.8-1.77-1.92-1.77Z"/>
  <path class="cls-1" d="M164.12,174.76h1.96v1.84c0,.86.47,1.13,1.58,1.13h4.16v2.18h-7.7v-2.18h1.19c-.82-.47-1.19-1.14-1.19-1.99v-.98Z"/>
  <path class="cls-1" d="M164.12,166.4l8.17.06c2.47,0,3.67,2.12,3.67,4.27,0,1.55-.61,3.1-1.81,3.92l-1.26-1.29c.7-.61,1.1-1.62,1.1-2.56,0-1.14-.61-2.17-2-2.17h0s-1.1-.01-1.1-.01c.75.6,1.11,1.49,1.11,2.41,0,1.8-1.38,3.69-4.02,3.69s-4.02-1.89-4.02-3.69c0-.94.38-1.84,1.16-2.44h-.98v-2.2ZM167.9,168.61c-1.33.03-2,.97-2,1.9s.7,1.92,2.08,1.92,2.06-.97,2.06-1.92-.63-1.84-1.93-1.9h-.21Z"/>
</svg>